<svg width="448" height="512" xmlns="http://www.w3.org/2000/svg" xmlns:svg="http://www.w3.org/2000/svg">
 <!--! Font Awesome Pro 6.4.2 by @fontawesome - https://fontawesome.com License - https://fontawesome.com/license (Commercial License) Copyright 2023 Fonticons, Inc. -->
 <g class="layer">
  <title>Layer 1</title>
  <rect height="0" id="svg_2" width="0" x="28" y="6"/>
  <path d="m406.29,535l-364.57,0c-27.34,0 -49.71,-27.24 -49.71,-60.54l0,-443.93c0,-33.29 22.37,-60.54 49.71,-60.54l364.57,0c27.34,0 49.71,27.24 49.71,60.54l0,443.93c0,33.29 -22.37,60.54 -49.71,60.54zm-207.56,-380.24c0,-38.72 -18.23,-56.88 -41.12,-56.88c-26.72,0 -41.43,24.97 -41.43,56.12l0,195.23c0,32.54 14.19,57.51 41.95,57.51c22.27,0 40.6,-17.66 40.6,-57.51l0,-52.72l62.76,95.47c12.74,18.79 40.39,21.19 57.79,0c15.12,-19.04 15.33,-46.41 4.14,-63.56l-50.85,-79.2l41.95,-74.03c9.74,-17.03 9.84,-43.51 -5.8,-61.92c-16.99,-20.05 -46.19,-21.82 -63.59,8.83l-46.4,81.6l0,-48.93z" id="svg_1" transform="matrix(1 0 0 1 0 0)"/>
  <path d="m405.29,484l-364.57,0c-27.34,0 -49.71,-22.37 -49.71,-49.71l0,-364.57c0,-27.34 22.37,-49.71 49.71,-49.71l364.57,0c27.34,0 49.71,22.37 49.71,49.71l0,364.57c0,27.34 -22.37,49.71 -49.71,49.71zm-207.56,-312.27c0,-31.8 -18.23,-46.71 -41.12,-46.71c-26.72,0 -41.43,20.51 -41.43,46.09l0,160.33c0,26.72 14.19,47.23 41.95,47.23c22.27,0 40.6,-14.5 40.6,-47.23l0,-43.29l62.76,78.4c12.74,15.43 40.39,17.4 57.79,0c15.12,-15.64 15.33,-38.11 4.14,-52.2l-50.85,-65.04l41.95,-60.8c9.74,-13.98 9.84,-35.73 -5.8,-50.85c-16.99,-16.47 -46.19,-17.92 -63.59,7.25l-46.4,67.01l0,-40.19z" id="svg_3"/>
 </g>
</svg>